<svg xmlns="http://www.w3.org/2000/svg" width="99.17" height="41.784" viewBox="0 0 99.17 41.784"><defs><style>.a{fill:#575757;}</style></defs><path class="a" d="M80.907,68.225c-2.749,3.024-6.6,4.536-8.384,4.536A3.26,3.26,0,0,1,69.087,69.6a5.95,5.95,0,0,1,.137-2.2c.687-4.261,2.2-7.01,2.2-7.7,0-.275-.137-.412-.275-.412-1.375,0-6.048,4.811-6.735,7.972l-.55,2.612a3.722,3.722,0,0,1-3.3,2.886,1.047,1.047,0,0,1-1.1-.962v-.825L59.74,69.6c-2.474,1.924-5.223,3.161-6.46,3.161a2.788,2.788,0,0,1-3.024-2.337A5.243,5.243,0,0,1,46,72.761a5.643,5.643,0,0,1-4.948-3.436A25.152,25.152,0,0,1,36.1,73.586c-2.886,1.787-6.048,3.3-9.759,3.3a11.915,11.915,0,0,1-7.972-3.3c-2.474-2.2-3.711-5.635-4.123-8.659-1.237-9.621,4.673-22.4,13.882-27.9a13.064,13.064,0,0,1,6.6-1.924,7.968,7.968,0,0,1,8.109,6.872c.412,3.436-.962,6.323-4.673,8.109-1.924.962-2.886.962-3.161.412a.9.9,0,0,1,.275-1.1c3.574-2.886,3.574-5.361,3.161-8.8-.275-2.2-1.649-3.574-3.3-3.574-7.147,0-17.044,15.532-15.669,26.8.55,4.4,3.3,9.484,8.8,9.484a13,13,0,0,0,5.5-1.374,17.287,17.287,0,0,0,6.46-4.811C39.81,61.9,44.346,55.3,50.943,55.3c2.886,0,5.223,1.1,5.5,3.436a2.866,2.866,0,0,1-3.024,3.436c-.825,0-2.062-.275-2.2-.962-.137-.825,1.787-.412,1.512-2.2-.137-1.1-1.374-1.512-2.474-1.512-4.123,0-6.46,5.773-6.048,9.347.137,1.649,1.1,3.3,2.474,3.3,1.237,0,3.024-1.787,3.574-4.261A3.722,3.722,0,0,1,53.555,63c.687,0,1.1.275,1.1.962v.825c-.137.687-.687,3.3-.687,3.711a1.073,1.073,0,0,0,1.1,1.1c.687,0,2.886-1.237,5.086-3.161.687-3.436,1.512-7.7,1.512-7.972.275-1.374.825-2.886,3.574-2.886a1.047,1.047,0,0,1,1.1.962v.825l-.687,3.711c2.474-3.3,6.323-5.773,8.659-5.773a1.814,1.814,0,0,1,1.924,1.512,7.1,7.1,0,0,1-.412,2.612,58.183,58.183,0,0,0-2.337,8.522,1.17,1.17,0,0,0,1.237,1.512c.962,0,3.849-1.1,6.185-4.261V63.827a17.855,17.855,0,0,1,.687-5.91,4.46,4.46,0,0,1,3.574-2.886,1.012,1.012,0,0,1,1.1,1.1,1.743,1.743,0,0,1-.137.825,24.221,24.221,0,0,0-1.375,7.285,22.764,22.764,0,0,0,.55,4.536.364.364,0,0,0,.412.412c.412,0,3.161-2.612,5.086-5.91a6.333,6.333,0,0,1-2.749-5.635c0-4.123,2.474-6.323,4.948-6.323,1.924,0,3.574,1.374,3.574,4.123a13.122,13.122,0,0,1-1.649,5.635h.55a4.194,4.194,0,0,0,3.3-1.512,3.644,3.644,0,0,1,.825-.687,10.572,10.572,0,0,1,8.109-3.986c2.886,0,5.223,1.1,5.5,3.436a3.042,3.042,0,0,1-3.024,3.574c-.825,0-2.2-.275-2.2-.962-.137-.687,1.787-.412,1.649-2.2-.137-1.1-1.374-1.649-2.474-1.649-3.849,0-6.46,5.086-6.048,9.346.137,1.649.962,3.3,2.474,3.3,1.237,0,3.024-1.787,3.711-4.261a3.9,3.9,0,0,1,3.3-2.886.974.974,0,0,1,1.1.962,30.825,30.825,0,0,1-.687,3.849,11.84,11.84,0,0,0-.275,2.886,6.185,6.185,0,0,0,1.649,3.436,1.256,1.256,0,0,1,.412.687.792.792,0,0,1-.825.825.826.826,0,0,1-.55-.137c-3.024-1.237-4.261-3.3-4.536-5.086a5.1,5.1,0,0,1-4.261,2.2,6.126,6.126,0,0,1-5.635-5.361A9.236,9.236,0,0,1,97.4,63a6.291,6.291,0,0,1-3.3,1.1H93.14a27.517,27.517,0,0,1-7.422,7.56,5.65,5.65,0,0,1-2.2.687,1.492,1.492,0,0,1-1.237-.55c-.825-.55-1.237-1.924-1.375-3.574Zm9.347-12.37a7.043,7.043,0,0,0,1.787,4.4,9.448,9.448,0,0,0,.687-3.3c0-2.062-.825-3.024-1.374-3.024C90.529,53.93,90.254,55.03,90.254,55.855Z" transform="translate(-14.081 -35.1)"/></svg>